<svg height="270.219447" viewBox="0 0 474.615 346.227" width="370.06959" xmlns="http://www.w3.org/2000/svg" xmlns:xlink="http://www.w3.org/1999/xlink"><clipPath id="a"><path d="m0 0h841.89v595.28h-841.89z" transform="matrix(1 0 0 -1 -201.001 456.36799)"/></clipPath><clipPath id="b"><path d="m0 595.28h841.89v-595.28h-841.89z" transform="matrix(1 0 0 -1 -201.001 456.36799)"/></clipPath><g clip-path="url(#a)"><g fill="#918f90"><path d="m370.355 307.227h3.676v-3.66901h-3.676z" transform="matrix(1 0 0 -1 -201.001 456.36799)"/><path d="m374.68 307.227h3.648v-3.66901h-3.648z" transform="matrix(1 0 0 -1 -201.001 456.36799)"/><path d="m378.976 307.227h3.67403v-3.66901h-3.67403z" transform="matrix(1 0 0 -1 -201.001 456.36799)"/><path d="m383.292 307.227h3.66199v-3.66901h-3.66199z" transform="matrix(1 0 0 -1 -201.001 456.36799)"/><path d="m370.355 311.469h3.676v-3.669h-3.676z" transform="matrix(1 0 0 -1 -201.001 456.36799)"/><path d="m374.68 311.469h3.648v-3.669h-3.648z" transform="matrix(1 0 0 -1 -201.001 456.36799)"/><path d="m378.976 311.469h3.67403v-3.669h-3.67403z" transform="matrix(1 0 0 -1 -201.001 456.36799)"/><path d="m383.292 311.469h3.66199v-3.669h-3.66199z" transform="matrix(1 0 0 -1 -201.001 456.36799)"/><path d="m391.91 311.469h3.668v-3.669h-3.668z" transform="matrix(1 0 0 -1 -201.001 456.36799)"/><path d="m370.355 315.685h3.676v-3.661h-3.676z" transform="matrix(1 0 0 -1 -201.001 456.36799)"/><path d="m374.68 315.685h3.648v-3.661h-3.648z" transform="matrix(1 0 0 -1 -201.001 456.36799)"/><path d="m383.292 315.685h3.66199v-3.661h-3.66199z" transform="matrix(1 0 0 -1 -201.001 456.36799)"/><path d="m387.595 315.685h3.672v-3.661h-3.672z" transform="matrix(1 0 0 -1 -201.001 456.36799)"/><path d="m391.91 315.685h3.668v-3.661h-3.668z" transform="matrix(1 0 0 -1 -201.001 456.36799)"/><path d="m374.68 319.923h3.648v-3.664h-3.648z" transform="matrix(1 0 0 -1 -201.001 456.36799)"/><path d="m378.976 319.923h3.67403v-3.664h-3.67403z" transform="matrix(1 0 0 -1 -201.001 456.36799)"/><path d="m383.292 319.923h3.66199v-3.664h-3.66199z" transform="matrix(1 0 0 -1 -201.001 456.36799)"/><path d="m387.595 319.923h3.672v-3.664h-3.672z" transform="matrix(1 0 0 -1 -201.001 456.36799)"/><path d="m396.215 319.923h3.685v-3.664h-3.685z" transform="matrix(1 0 0 -1 -201.001 456.36799)"/><path d="m374.68 324.151h3.648v-3.668h-3.648z" transform="matrix(1 0 0 -1 -201.001 456.36799)"/><path d="m378.976 324.151h3.67403v-3.668h-3.67403z" transform="matrix(1 0 0 -1 -201.001 456.36799)"/><path d="m383.292 324.151h3.66199v-3.668h-3.66199z" transform="matrix(1 0 0 -1 -201.001 456.36799)"/><path d="m387.595 324.151h3.672v-3.668h-3.672z" transform="matrix(1 0 0 -1 -201.001 456.36799)"/><path d="m391.91 324.151h3.668v-3.668h-3.668z" transform="matrix(1 0 0 -1 -201.001 456.36799)"/><path d="m396.215 324.151h3.685v-3.668h-3.685z" transform="matrix(1 0 0 -1 -201.001 456.36799)"/><path d="m400.524 324.151h3.67v-3.668h-3.67z" transform="matrix(1 0 0 -1 -201.001 456.36799)"/><path d="m409.159 324.151h3.668v-3.668h-3.668z" transform="matrix(1 0 0 -1 -201.001 456.36799)"/><path d="m383.292 328.38h3.66199v-3.667h-3.66199z" transform="matrix(1 0 0 -1 -201.001 456.36799)"/><path d="m387.595 328.38h3.672v-3.667h-3.672z" transform="matrix(1 0 0 -1 -201.001 456.36799)"/><path d="m396.215 328.38h3.685v-3.667h-3.685z" transform="matrix(1 0 0 -1 -201.001 456.36799)"/><path d="m404.84 328.38h3.667v-3.667h-3.667z" transform="matrix(1 0 0 -1 -201.001 456.36799)"/><path d="m378.976 332.61h3.67403v-3.671h-3.67403z" transform="matrix(1 0 0 -1 -201.001 456.36799)"/><path d="m383.292 332.61h3.66199v-3.671h-3.66199z" transform="matrix(1 0 0 -1 -201.001 456.36799)"/><path d="m387.595 332.61h3.672v-3.671h-3.672z" transform="matrix(1 0 0 -1 -201.001 456.36799)"/><path d="m391.91 332.61h3.668v-3.671h-3.668z" transform="matrix(1 0 0 -1 -201.001 456.36799)"/><path d="m396.215 332.61h3.685v-3.671h-3.685z" transform="matrix(1 0 0 -1 -201.001 456.36799)"/><path d="m404.84 332.61h3.667v-3.671h-3.667z" transform="matrix(1 0 0 -1 -201.001 456.36799)"/><path d="m426.382 332.61h3.68799v-3.671h-3.68799z" transform="matrix(1 0 0 -1 -201.001 456.36799)"/><path d="m383.292 336.844h3.66199v-3.668h-3.66199z" transform="matrix(1 0 0 -1 -201.001 456.36799)"/><path d="m391.91 336.844h3.668v-3.668h-3.668z" transform="matrix(1 0 0 -1 -201.001 456.36799)"/><path d="m400.524 336.844h3.67v-3.668h-3.67z" transform="matrix(1 0 0 -1 -201.001 456.36799)"/><path d="m409.159 336.844h3.668v-3.668h-3.668z" transform="matrix(1 0 0 -1 -201.001 456.36799)"/><path d="m396.215 341.074h3.685v-3.671h-3.685z" transform="matrix(1 0 0 -1 -201.001 456.36799)"/><path d="m404.84 341.074h3.667v-3.671h-3.667z" transform="matrix(1 0 0 -1 -201.001 456.36799)"/><path d="m400.524 345.298h3.67v-3.668h-3.67z" transform="matrix(1 0 0 -1 -201.001 456.36799)"/><path d="m409.159 345.298h3.668v-3.668h-3.668z" transform="matrix(1 0 0 -1 -201.001 456.36799)"/><path d="m417.762 345.298h3.674v-3.668h-3.674z" transform="matrix(1 0 0 -1 -201.001 456.36799)"/><path d="m396.215 349.537h3.685v-3.67401h-3.685z" transform="matrix(1 0 0 -1 -201.001 456.36799)"/><path d="m417.762 353.766h3.674v-3.67401h-3.674z" transform="matrix(1 0 0 -1 -201.001 456.36799)"/><path d="m430.69 353.766h3.677v-3.67401h-3.677z" transform="matrix(1 0 0 -1 -201.001 456.36799)"/><path d="m417.762 357.996h3.674v-3.677h-3.674z" transform="matrix(1 0 0 -1 -201.001 456.36799)"/><path d="m417.762 362.224h3.674v-3.672h-3.674z" transform="matrix(1 0 0 -1 -201.001 456.36799)"/><path d="m422.085 366.454h3.66199v-3.67497h-3.66199z" transform="matrix(1 0 0 -1 -201.001 456.36799)"/></g><path d="m360.299 315.384h9.38103v-1.759h-9.38103z" fill="#231f20" transform="matrix(1 0 0 -1 -201.001 456.36799)"/><g clip-path="url(#b)"><path d="m0 0c-1.507.164-1.432-.31-3.425-.631-1.992-.327-3.122-2.39-1.125-2.161 2.001.246 2.877.322 4.635 1.049 1.749.711-.085 1.743-.085 1.743m1.528-7.408c-2.075.231-1.91-.476-2.484-.759-.719-.354 1.358-.679 2.963-.614 1.594.093 1.594 1.132-.479 1.373m18.411-43.336h.578 15.148c-4.374-4.898-14.665-13.191-37.98-21.465-41.343-14.696-81.748 2.945-58.092 36.536 23.131 32.881 59.77 40.631 63.605 41.267 3.822.641 10.219 1.039 7.106.086-3.118-.971-8.943-3.366-8.612-4.235.315-.885 4.143.074 6.284.402 2.168.313 2.168-1.2.888-1.847-1.27-.631-2.307 0-1.517-.788.809-.804.331-1.356-.963-1.92-1.266-.559-4.781-.313-5.982-1.443-1.197-1.101 2.228-1.101 4.631-.149 2.4.953 2.943 1.196 5.594 1.354 2.626.154.153-1.443 1.43-1.998 1.28-.556 7.749.72 6.071-.308-1.674-1.046 3.196-1.046-.167-2.008-3.353-.955-34.792-4.47-58.894-20.272-24.108-15.8-27.296-48.515 13.729-40.376 29.91 5.934 42.42 19.592 47.01 26.549v-9.385z" fill="#918f90" transform="matrix(1 0 0 -1 148.83979 102.77347)"/><path d="m0 0c0 10.805 8.747 19.554 19.546 19.554 10.813 0 19.562-8.749 19.562-19.554 0-10.795-8.749-19.544-19.562-19.544-10.799 0-19.546 8.749-19.546 19.544" fill="#f68b1e" transform="matrix(1 0 0 -1 116.33838 142.37168)"/><path d="m0 0c-.854 1.924.02 4.186 1.945 5.053 1.938.849 4.205-.014 5.063-1.946.871-1.934 0-4.198-1.939-5.059-1.931-.863-4.199.018-5.069 1.952" fill="#fff" transform="matrix(1 0 0 -1 122.62448 133.85309)"/><path d="m0 0c0 .879-3.751.951-4.307.151-.554-.79-2.549-.479-2.722-1.192-.142-.73 1.684-.556 3.278.069 1.611.644 3.751.092 3.751.972" fill="#918f90" transform="matrix(1 0 0 -1 166.24219 97.095798)"/><path d="m0 0c-.556.632-4.231.878-5.349.322-1.124-.567-2.556-1.131-3.271-1.131-.717 0 .327-.876 2.239-.876 1.908 0 1.673.489 3.585.166 1.917-.319 3.35.874 2.796 1.519" fill="#918f90" transform="matrix(1 0 0 -1 169.03809 99.57037)"/><path d="m0 0c-1.985-.483-2.467-.721-3.514-.966-1.037-.238-.075-1.034 2.24-.554 2.316.47 3.029.636 4.145.71 1.129.089.96 1.122-.402 1.205-1.346.075-2.469-.395-2.469-.395" fill="#918f90" transform="matrix(1 0 0 -1 163.68939 102.92148)"/><path d="m0 0c-.606.907-2.476.317-3.275-.162-.781-.486-.633-.555.72-.796 1.363-.242 2.597.552 2.555.958" fill="#918f90" transform="matrix(1 0 0 -1 172.14688 102.20419)"/><path d="m0 0c-.499.238-4.465-.322-5.102-.163-.641.163-1.519-.634-2.879-.634-1.355 0-3.502-.086-2.707-.958.801-.877 4.233-.404 5.74-.077 1.532.31 3.115 1.035 4.557.711 1.429-.312.592 1.068.391 1.121" fill="#918f90" transform="matrix(1 0 0 -1 177.0947 104.04358)"/><path d="m264.611 315.447h48.198v-1.762h-48.198z" fill="#231f20" transform="matrix(1 0 0 -1 -201.001 456.36799)"/><path d="m337.792 240.183h-1.742v48.2h1.742z" fill="#231f20" transform="matrix(1 0 0 -1 -201.001 456.36799)"/><path d="m337.792 340.122h-1.742v48.188h1.742z" fill="#231f20" transform="matrix(1 0 0 -1 -201.001 456.36799)"/><path d="m396.258 315.384h139.65499v-1.759h-139.65499z" fill="#231f20" transform="matrix(1 0 0 -1 -201.001 456.36799)"/><path d="m0 0c0 1.934 1.573 3.508 3.518 3.508 1.946 0 3.51-1.574 3.51-3.508 0-1.943-1.564-3.518-3.51-3.518-1.945 0-3.518 1.575-3.518 3.518" fill="#d82c25" transform="matrix(1 0 0 -1 334.77543 141.85898)"/><path d="m0 0c0 1.931 1.559 3.506 3.509 3.506 1.946 0 3.519-1.575 3.519-3.506 0-1.946-1.573-3.527-3.519-3.527-1.95 0-3.509 1.581-3.509 3.527" fill="#d82c25" transform="matrix(1 0 0 -1 132.4057 64.644199)"/><path d="m0 0c0 1.075-.291 1.925-.875 2.543-.593.622-1.49.932-2.695.932h-7.982v-7.044h7.921c1.24 0 2.163.334 2.756 1.006.584.679.875 1.527.875 2.563m-.838 13.966c0 .797-.213 1.481-.663 2.043-.451.55-1.271.832-2.488.832h-7.563v-5.755h7.563c1.179 0 2.001.261 2.467.793.459.517.684 1.216.684 2.087m10.685-13.78c0-3.719-1.126-6.592-3.368-8.626-2.251-2.043-5.667-3.062-10.262-3.062h-17.408v36.265h17.523c4.48 0 7.723-.813 9.711-2.439 1.977-1.629 2.982-3.957 2.982-7.005 0-1.976-.435-3.489-1.283-4.519-.84-1.037-1.87-1.902-3.081-2.594 1.66-.683 2.947-1.675 3.837-2.973.904-1.287 1.349-2.974 1.349-5.047" fill="#231f20" transform="matrix(1 0 0 -1 181.54489 204.42879)"/><path d="m396.425 276.702h10.273v-36.26h-10.273z" fill="#231f20" transform="matrix(1 0 0 -1 -201.001 456.36799)"/><path d="m0 0-8.659 11.966c-.418.555-.881 1.235-1.448 2.045-.557.816-1.108 1.628-1.631 2.436-.537.812-1.036 1.59-1.507 2.318-.453.712-.823 1.287-1.062 1.697.069-.41.112-.988.154-1.733.038-.749.069-1.556.1-2.439.038-.877.061-1.786.061-2.719v-2.48-11.091h-9.634v36.26h8.855l7.981-10.723c.415-.549.911-1.233 1.472-2.076.575-.815 1.136-1.647 1.685-2.482.554-.826 1.057-1.612 1.507-2.326.451-.728.78-1.285.981-1.654-.068.406-.121.981-.149 1.73-.034.745-.078 1.548-.122 2.434-.021.888-.037 1.782-.037 2.72v2.492 9.885h9.634v-36.26z" fill="#231f20" transform="matrix(1 0 0 -1 234.59958 215.92589)"/><path d="m0 0c-.804-2.03-1.935-3.705-3.375-4.996-1.433-1.288-3.109-2.233-5.069-2.819-1.961-.581-4.062-.884-6.347-.884-2.279 0-4.39.303-6.324.884-1.936.586-3.604 1.531-4.998 2.819-1.389 1.291-2.488 2.966-3.28 4.996-.815 2.033-1.202 4.502-1.202 7.354v20.769h10.254v-20.769c0-2.243.462-4.007 1.374-5.28.927-1.285 2.35-1.92 4.325-1.92 1.976 0 3.402.635 4.272 1.92.887 1.273 1.333 3.037 1.333 5.28v20.769h10.255v-20.769c0-2.852-.405-5.321-1.218-7.354" fill="#231f20" transform="matrix(1 0 0 -1 278.1904 207.79409)"/><path d="m0 0c0-2.068-.378-3.839-1.119-5.334-.74-1.48-1.781-2.691-3.116-3.626-1.321-.918-2.897-1.622-4.726-2.073-1.832-.446-3.835-.674-6.012-.674-2.937 0-5.741.432-8.417 1.28-2.675.846-4.962 1.883-6.874 3.125l4.878 7.877c.653-.452 1.425-.894 2.31-1.315.87-.44 1.79-.832 2.745-1.166.941-.351 1.902-.619 2.87-.835.97-.202 1.863-.315 2.696-.315 1.789 0 3.041.178 3.696.531.678.335 1.026.94 1.026 1.804 0 .339-.102.659-.285.931-.2.276-.537.55-1.003.81-.463.261-1.078.516-1.881.778-.795.25-1.798.523-3.006.804-2.174.508-4.08 1.061-5.69 1.651-1.64.587-2.981 1.324-4.041 2.205-1.075.878-1.885 1.938-2.422 3.193-.529 1.236-.8 2.767-.8 4.6 0 1.689.337 3.245 1.006 4.662.686 1.42 1.641 2.622 2.885 3.627 1.24 1.003 2.733 1.774 4.499 2.33 1.764.556 3.73.833 5.909.833 3.111 0 5.808-.364 8.106-1.088 2.296-.727 4.417-1.76 6.345-3.105l-4.869-7.876c-1.625 1.098-3.24 1.948-4.866 2.531-1.623.59-3.371.884-5.234.884-1.521 0-2.52-.205-3.002-.615-.478-.423-.719-.957-.719-1.614 0-.341.092-.651.273-.897.182-.263.521-.506.952-.731.461-.217 1.07-.454 1.815-.681.758-.217 1.739-.474 2.907-.747 2.278-.552 4.256-1.152 5.911-1.809 1.655-.664 3.018-1.429 4.085-2.328 1.075-.907 1.87-1.979 2.392-3.219.513-1.244.776-2.708.776-4.408" fill="#231f20" transform="matrix(1 0 0 -1 313.082 204.79308)"/><g fill="#0097da"><path d="m0 0c-6.134 0-10.269 4.137-10.269 11.538v14.261h5.08v-14.189c0-4.062 1.959-6.64 5.189-6.64 3.229 0 5.224 2.504 5.224 6.568v14.261h5.08v-14.189c0-7.365-3.846-11.61-10.304-11.61" transform="matrix(1 0 0 -1 170.5874 256.00398)"/><path d="m0 0-9.326 13.86c-.616.945-1.452 2.213-1.777 2.867 0-.943.072-4.136.072-5.551v-11.176h-5.007v25.4h4.863l8.997-13.426c.618-.943 1.451-2.214 1.778-2.868 0 .945-.072 4.138-.072 5.553v10.741h5.008v-25.4z" transform="matrix(1 0 0 -1 203.28018 255.60558)"/><path d="m415.711 226.163h5.08v-25.4h-5.08z" transform="matrix(1 0 0 -1 -201.001 456.36799)"/><path d="m0 0h-4.935l-9.035 25.4h5.624l4.79-14.696c.472-1.415.98-3.267 1.198-4.173.217.944.689 2.685 1.161 4.173l4.68 14.696h5.551z" transform="matrix(1 0 0 -1 238.83979 255.60558)"/><path d="m0 0v25.4h17.635v-4.971h-12.555v-4.391h7.294v-4.934h-7.294v-6.133h13.099v-4.971z" transform="matrix(1 0 0 -1 252.5918 255.60558)"/><path d="m0 0h-6.64v-6.53h6.64c2.358 0 3.629 1.089 3.629 3.301 0 2.287-1.379 3.229-3.629 3.229m3.011-20.464-4.535 9.145h-5.116v-9.145h-5.08v25.401h11.828c4.79 0 8.746-2.65 8.746-8.056 0-3.811-1.633-6.205-4.863-7.476l4.863-9.869z" transform="matrix(1 0 0 -1 287.8974 235.14168)"/><path d="m0 0c-4.246 0-7.945 1.777-9.869 4.607l3.665 3.266c1.777-2.067 4.063-2.903 6.494-2.903 3.012 0 4.428.836 4.428 2.758 0 1.632-.871 2.358-5.661 3.447-4.68 1.088-7.947 2.577-7.947 7.584 0 4.608 4.064 7.437 9.072 7.437 3.955 0 6.858-1.487 9.253-3.991l-3.665-3.556c-1.633 1.669-3.448 2.614-5.77 2.614-2.722 0-3.628-1.162-3.628-2.286 0-1.597 1.088-2.105 5.115-3.048 4.029-.944 8.492-2.323 8.492-7.838 0-4.825-3.048-8.091-9.979-8.091" transform="matrix(1 0 0 -1 310.7207 256.00398)"/><path d="m527.434 226.163h5.08006v-25.4h-5.08006z" transform="matrix(1 0 0 -1 -201.001 456.36799)"/><path d="m0 0v-20.392h-5.079v20.392h-7.293v5.009h19.666v-5.009z" transform="matrix(1 0 0 -1 349.1465 235.21398)"/><path d="m0 0v-10.051h-5.08v9.943l-9.615 15.458h5.842l3.592-6.026c.907-1.522 2.285-4.026 2.758-4.97.471.944 1.815 3.375 2.758 4.97l3.592 6.026h5.769z" transform="matrix(1 0 0 -1 373.56639 245.55478)"/></g><path d="m0 0c0 1.94 1.577 3.515 3.518 3.515 1.934 0 3.505-1.575 3.505-3.515 0-1.937-1.571-3.511-3.505-3.511-1.941 0-3.518 1.574-3.518 3.511" fill="#d82c25" transform="matrix(1 0 0 -1 132.4375 219.57918)"/><path d="m0 0c0 1.937 1.561 3.513 3.507 3.513s3.506-1.576 3.506-3.513-1.56-3.512-3.506-3.512-3.507 1.575-3.507 3.512" fill="#d82c25" transform="matrix(1 0 0 -1 56.705995 141.80237)"/></g></g></svg>